# xmcd
#
# Track frame offsets:
#	150
#	3915
#	17423
#	30574
#	47514
#	65287
#	87307
#	104690
#	120442
#	137359
#	157892
#
# Disc length: 2260 seconds
#
# Revision: 1
# Processed by: cddbd v1.5.2PL0 Copyright (c) Steve Scherf et al.
# Submitted via: EZCDAudioConverter 4.0.5.1
#
DISCID=7508d20b
DTITLE=The Highwaymen - The Highwaymen Live American Outlaws
DYEAR=2016
DGENRE=Country
TTITLE0=Mystery Train
TTITLE1=Highway Man
TTITLE2=The King Is Gone (So You Are)
TTITLE3=I've Always Been Crazy
TTITLE4=The Best Of All Possible Words
TTITLE5=City Of New Orleans
TTITLE6=Folsom Prison Blues
TTITLE7=Intro - Highwayman
TTITLE8=Shipwrecked In The Eighties
TTITLE9=Desperados Waiting For A Train
TTITLE10=One Too Many Mornings
EXTD=
EXTT0=
EXTT1=
EXTT2=
EXTT3=
EXTT4=
EXTT5=
EXTT6=
EXTT7=
EXTT8=
EXTT9=
EXTT10=
PLAYORDER=
